<svg xmlns="http://www.w3.org/2000/svg" viewBox="0 0 533.5 544.3">
  <path fill="#4285F4" d="M533.5 278.4c0-18.4-1.6-36.2-4.7-53.4H272v101h146.7c-6.3 33.9-25 62.7-53.1 82l86.1 67c50.3-46.3 79.8-114.5 79.8-196.6z"/>
  <path fill="#34A853" d="M272 544.3c71.9 0 132.4-23.8 176.5-64.5l-86.1-67c-24 16.2-54.8 25.8-90.4 25.8-69.6 0-128.6-46.9-149.7-109.8H35.8v68.9C79.8 483.2 169.7 543.3 272 543.3z"/>
  <path fill="#FBBC05" d="M122.3 328.8c-10.6-31-10.6-64.4 0-95.3V164.5H35.8c-39 77.5-39 168 0 245.6l86.5-81.3z"/>
  <path fill="#EA4335" d="M272 107.7c37.9-.6 74.5 13.5 102.3 39.4l76-76C396.2 29.8 335.2 0 272 0 169.8 0 79.9 60.1 35.8 146.6l86.5 68.9C143.4 154.6 202.4 107.7 272 107.7z"/>
</svg>
